<svg xmlns="http://www.w3.org/2000/svg" version="1.1" xmlns:xlink="http://www.w3.org/1999/xlink" xmlns:svgjs="http://svgjs.com/svgjs" width="1440" height="560" preserveAspectRatio="none" viewBox="0 0 1440 560"><g mask="url(&quot;#SvgjsMask1065&quot;)" fill="none"><rect width="1440" height="560" x="0" y="0" fill="#0e2a47"></rect><path d="M1117.7536576144735 223.1470823355957L1040.6671189450417 300.2336210050275 1117.7536576144735 377.32015967445926 1194.8401962839052 300.2336210050275z" fill="rgba(28, 83, 142, 0.4)" class="triangle-float1"></path><path d="M1346.325,520.425C1375.475,521.305,1408.656,517.341,1422.78,491.827C1436.656,466.761,1421.582,437.234,1405.507,413.518C1391.777,393.262,1370.71,381.078,1346.325,379.031C1316.937,376.564,1282.818,376.998,1267.007,401.892C1250.499,427.884,1260.349,461.848,1277.473,487.438C1292.642,510.107,1319.061,519.602,1346.325,520.425" fill="rgba(28, 83, 142, 0.4)" class="triangle-float1"></path><path d="M188.18095197536746 525.00895142162L201.59817675258128 461.88587174909946 100.20494485519346 473.32157441953905z" fill="rgba(28, 83, 142, 0.4)" class="triangle-float1"></path><path d="M122.77868076013394 416.6079458390519L58.9717411853718 273.295213123852-84.34099152982813 337.10215269861413-20.53405195506599 480.4148854138141z" fill="rgba(28, 83, 142, 0.4)" class="triangle-float2"></path><path d="M969.0522472703537 301.1230637091494L1054.5781067084108 325.64720926606867 1048.6013953247611 185.09634733052349z" fill="rgba(28, 83, 142, 0.4)" class="triangle-float3"></path><path d="M1023.1686353846959 638.7045730232421L1089.7107275990013 543.6726166629319 994.6787712386911 477.13052444862666 928.1366790243858 572.1624808089368z" fill="rgba(28, 83, 142, 0.4)" class="triangle-float1"></path><path d="M844.456442863967 405.63623607823337L843.4701383385288 349.13088765963226 759.2052679733463 378.86301865709015z" fill="rgba(28, 83, 142, 0.4)" class="triangle-float3"></path><path d="M805.858,590.79C850.56,592.335,894.967,572.09,917.009,533.169C938.779,494.73,931.66,447.347,908.347,409.823C886.367,374.444,847.508,353.972,805.858,354.261C764.724,354.546,726.288,375.558,705.801,411.228C685.392,446.762,687.319,490.122,707.265,525.918C727.789,562.751,763.718,589.333,805.858,590.79" fill="rgba(28, 83, 142, 0.4)" class="triangle-float1"></path><path d="M86.26082758434404 185.3319609172983L171.31406235485613 141.99517323989792 63.78226345349953 36.083714922829984z" fill="rgba(28, 83, 142, 0.4)" class="triangle-float1"></path><path d="M653.4585205448865 509.8332984735945L549.5401947635473 483.9235498477262 523.630446137679 587.8418756290654 627.5487719190181 613.7516242549336z" fill="rgba(28, 83, 142, 0.4)" class="triangle-float3"></path><path d="M773.493,335.478C819.3,336.256,862.839,314.004,886.424,274.727C910.715,234.276,912.429,183.792,889.263,142.687C865.682,100.845,821.51,73.273,773.493,74.347C727.124,75.384,688.445,106.887,666.361,147.673C645.381,186.42,645.181,232.73,667.013,271.003C689.049,309.632,729.027,334.723,773.493,335.478" fill="rgba(28, 83, 142, 0.4)" class="triangle-float3"></path><path d="M1130.4840892273469 54.28082444226007L961.8660180576767-17.483027886026537 978.6107460203554 141.8324166377111z" fill="rgba(28, 83, 142, 0.4)" class="triangle-float1"></path><path d="M296.2864898510543 329.9836991704907L195.094258440957 287.03014534084986 253.33293602141345 431.175930580588z" fill="rgba(28, 83, 142, 0.4)" class="triangle-float3"></path></g><defs><mask id="SvgjsMask1065"><rect width="1440" height="560" fill="#ffffff"></rect></mask><style>
            @keyframes float1 {
                0%{transform: translate(0, 0)}
                50%{transform: translate(-10px, 0)}
                100%{transform: translate(0, 0)}
            }

            .triangle-float1 {
                animation: float1 5s infinite;
            }

            @keyframes float2 {
                0%{transform: translate(0, 0)}
                50%{transform: translate(-5px, -5px)}
                100%{transform: translate(0, 0)}
            }

            .triangle-float2 {
                animation: float2 4s infinite;
            }

            @keyframes float3 {
                0%{transform: translate(0, 0)}
                50%{transform: translate(0, -10px)}
                100%{transform: translate(0, 0)}
            }

            .triangle-float3 {
                animation: float3 6s infinite;
            }
        </style></defs></svg>