<svg xmlns="http://www.w3.org/2000/svg" version="1.1" xmlns:xlink="http://www.w3.org/1999/xlink" xmlns:svgjs="http://svgjs.com/svgjs" width="1440" height="560" preserveAspectRatio="none" viewBox="0 0 1440 560"><g mask="url(&quot;#SvgjsMask1000&quot;)" fill="none"><rect width="1440" height="560" x="0" y="0" fill="#0e2a47"></rect><path d="M654.77 232.19 a8.65 8.65 0 1 0 17.3 0 a8.65 8.65 0 1 0 -17.3 0z" stroke="#e73635"></path><path d="M346.92 425.38 a47.25 47.25 0 1 0 94.5 0 a47.25 47.25 0 1 0 -94.5 0z" fill="#d3b714"></path><path d="M602.13 444.53a37.79 37.79 0 1 0-67-34.98z" stroke="#037b0b"></path><path d="M42.54 0.4L48.43 0.4L48.43 6.29L42.54 6.29z" stroke="#037b0b"></path><path d="M446.22 116.06L494.16 116.06L494.16 169.42L446.22 169.42z" fill="#037b0b"></path><path d="M533.14 18.57 a5.37 5.37 0 1 0 10.74 0 a5.37 5.37 0 1 0 -10.74 0z" stroke="#037b0b"></path><path d="M949.39 487.55L999.28 487.55L999.28 524.88L949.39 524.88z" fill="#e73635"></path><path d="M1111.36 163.84L1162.23 163.84L1162.23 189.68L1111.36 189.68z" stroke="#037b0b"></path><path d="M487.56 76.35a50.53 50.53 0 1 0 92.4-40.94z" stroke="#037b0b"></path><path d="M832.29 89.43L857.72 89.43L857.72 114.86L832.29 114.86z" fill="#e73635"></path><path d="M998.29 179.05L1035.2 179.05L1035.2 215.96L998.29 215.96z" stroke="#037b0b"></path><path d="M658.24 449.5 a31.92 31.92 0 1 0 63.84 0 a31.92 31.92 0 1 0 -63.84 0z" stroke="#037b0b"></path><path d="M278.55 412.56 a43.5 43.5 0 1 0 87 0 a43.5 43.5 0 1 0 -87 0z" stroke="#e73635"></path><path d="M680.68 5.04 a11.62 11.62 0 1 0 23.24 0 a11.62 11.62 0 1 0 -23.24 0z" fill="#037b0b"></path><path d="M872.73 376.98L905.79 376.98L905.79 410.04L872.73 410.04z" fill="#037b0b"></path><path d="M565.78 158.51 a12.51 12.51 0 1 0 25.02 0 a12.51 12.51 0 1 0 -25.02 0z" fill="#e73635"></path><path d="M43.12 418.92L87.67 418.92L87.67 468.87L43.12 468.87z" fill="#037b0b"></path><path d="M1177.42 226.7L1207.71 226.7L1207.71 278.87L1177.42 278.87z" stroke="#e73635"></path><path d="M539.86 438.04 a11.8 11.8 0 1 0 23.6 0 a11.8 11.8 0 1 0 -23.6 0z" stroke="#e73635"></path><path d="M1329.87 256.46a49.83 49.83 0 1 0-99.53 4.98z" stroke="#037b0b"></path><path d="M795.34 233.78L808.36 233.78L808.36 246.8L795.34 246.8z" fill="#d3b714"></path><path d="M605.5 86.57 a27.98 27.98 0 1 0 55.96 0 a27.98 27.98 0 1 0 -55.96 0z" stroke="#037b0b"></path><path d="M747.87 531.34L784.21 531.34L784.21 567.68L747.87 567.68z" stroke="#d3b714"></path><path d="M386.77 429.74L409.43 429.74L409.43 452.4L386.77 452.4z" fill="#037b0b"></path><path d="M166.31 51.67L198.4 51.67L198.4 83.76L166.31 83.76z" stroke="#d3b714"></path><path d="M1398.82 513.06 a36 36 0 1 0 72 0 a36 36 0 1 0 -72 0z" stroke="#e73635"></path><path d="M44.73 37.1 a19.08 19.08 0 1 0 38.16 0 a19.08 19.08 0 1 0 -38.16 0z" fill="#d3b714"></path><path d="M510.57 19.36L532.04 19.36L532.04 40.83L510.57 40.83z" fill="#d3b714"></path><path d="M643 277.41a39.56 39.56 0 1 0-41.84 67.15z" stroke="#037b0b"></path><path d="M352.47 446.99a6.37 6.37 0 1 0-12.13-3.9z" stroke="#e73635"></path><path d="M805.74 387.07 a7.09 7.09 0 1 0 14.18 0 a7.09 7.09 0 1 0 -14.18 0z" stroke="#037b0b"></path><path d="M68.08 488.35L69.92 488.35L69.92 510.84L68.08 510.84z" stroke="#037b0b"></path><path d="M494.47 127.89 a36.26 36.26 0 1 0 72.52 0 a36.26 36.26 0 1 0 -72.52 0z" fill="#e73635"></path></g><defs><mask id="SvgjsMask1000"><rect width="1440" height="560" fill="#ffffff"></rect></mask></defs></svg>