<svg xmlns="http://www.w3.org/2000/svg" version="1.1" xmlns:xlink="http://www.w3.org/1999/xlink" xmlns:svgjs="http://svgjs.com/svgjs" width="1440" height="560" preserveAspectRatio="none" viewBox="0 0 1440 560"><g mask="url(&quot;#SvgjsMask1000&quot;)" fill="none"><rect width="1440" height="560" x="0" y="0" fill="#0e2a47"></rect><path d="M42.8 -45.41L107.75 -7.91L107.75 67.09L42.8 104.59L-22.15 67.09L-22.15 -7.91zM107.75 517.09L172.71 554.59L172.71 629.59L107.75 667.09L42.8 629.59L42.8 554.59zM237.66 67.09L302.62 104.59L302.62 179.59L237.66 217.09L172.71 179.59L172.71 104.59zM367.57 292.09L432.52 329.59L432.52 404.59L367.57 442.09L302.62 404.59L302.62 329.59zM432.52 404.59L497.48 442.09L497.48 517.09L432.52 554.59L367.57 517.09L367.57 442.09zM627.38 67.09L692.34 104.59L692.34 179.59L627.38 217.09L562.43 179.59L562.43 104.59zM822.24 -45.41L887.2 -7.91L887.2 67.09L822.24 104.59L757.29 67.09L757.29 -7.91zM822.24 404.59L887.2 442.09L887.2 517.09L822.24 554.59L757.29 517.09L757.29 442.09zM887.2 517.09L952.15 554.59L952.15 629.59L887.2 667.09L822.24 629.59L822.24 554.59zM1211.97 -45.41L1276.92 -7.91L1276.92 67.09L1211.97 104.59L1147.01 67.09L1147.01 -7.91zM1276.92 67.09L1341.87 104.59L1341.87 179.59L1276.92 217.09L1211.97 179.59L1211.97 104.59zM1211.97 404.59L1276.92 442.09L1276.92 517.09L1211.97 554.59L1147.01 517.09L1147.01 442.09zM1406.83 292.09L1471.78 329.59L1471.78 404.59L1406.83 442.09L1341.88 404.59L1341.88 329.59zM1406.83 517.09L1471.78 554.59L1471.78 629.59L1406.83 667.09L1341.88 629.59L1341.88 554.59zM1536.74 67.09L1601.69 104.59L1601.69 179.59L1536.74 217.09L1471.78 179.59L1471.78 104.59zM1536.74 292.09L1601.69 329.59L1601.69 404.59L1536.74 442.09L1471.78 404.59L1471.78 329.59z" stroke="#03305d" stroke-width="2"></path><path d="M35.3 -45.41 a7.5 7.5 0 1 0 15 0 a7.5 7.5 0 1 0 -15 0zM100.25 -7.91 a7.5 7.5 0 1 0 15 0 a7.5 7.5 0 1 0 -15 0zM100.25 67.09 a7.5 7.5 0 1 0 15 0 a7.5 7.5 0 1 0 -15 0zM35.3 104.59 a7.5 7.5 0 1 0 15 0 a7.5 7.5 0 1 0 -15 0zM-29.65 67.09 a7.5 7.5 0 1 0 15 0 a7.5 7.5 0 1 0 -15 0zM-29.65 -7.91 a7.5 7.5 0 1 0 15 0 a7.5 7.5 0 1 0 -15 0zM100.25 517.09 a7.5 7.5 0 1 0 15 0 a7.5 7.5 0 1 0 -15 0zM165.21 554.59 a7.5 7.5 0 1 0 15 0 a7.5 7.5 0 1 0 -15 0zM165.21 629.59 a7.5 7.5 0 1 0 15 0 a7.5 7.5 0 1 0 -15 0zM100.25 667.09 a7.5 7.5 0 1 0 15 0 a7.5 7.5 0 1 0 -15 0zM35.3 629.59 a7.5 7.5 0 1 0 15 0 a7.5 7.5 0 1 0 -15 0zM35.3 554.59 a7.5 7.5 0 1 0 15 0 a7.5 7.5 0 1 0 -15 0zM230.16 67.09 a7.5 7.5 0 1 0 15 0 a7.5 7.5 0 1 0 -15 0zM295.12 104.59 a7.5 7.5 0 1 0 15 0 a7.5 7.5 0 1 0 -15 0zM295.12 179.59 a7.5 7.5 0 1 0 15 0 a7.5 7.5 0 1 0 -15 0zM230.16 217.09 a7.5 7.5 0 1 0 15 0 a7.5 7.5 0 1 0 -15 0zM165.21 179.59 a7.5 7.5 0 1 0 15 0 a7.5 7.5 0 1 0 -15 0zM165.21 104.59 a7.5 7.5 0 1 0 15 0 a7.5 7.5 0 1 0 -15 0zM360.07 292.09 a7.5 7.5 0 1 0 15 0 a7.5 7.5 0 1 0 -15 0zM425.02 329.59 a7.5 7.5 0 1 0 15 0 a7.5 7.5 0 1 0 -15 0zM425.02 404.59 a7.5 7.5 0 1 0 15 0 a7.5 7.5 0 1 0 -15 0zM360.07 442.09 a7.5 7.5 0 1 0 15 0 a7.5 7.5 0 1 0 -15 0zM295.12 404.59 a7.5 7.5 0 1 0 15 0 a7.5 7.5 0 1 0 -15 0zM295.12 329.59 a7.5 7.5 0 1 0 15 0 a7.5 7.5 0 1 0 -15 0zM489.98 442.09 a7.5 7.5 0 1 0 15 0 a7.5 7.5 0 1 0 -15 0zM489.98 517.09 a7.5 7.5 0 1 0 15 0 a7.5 7.5 0 1 0 -15 0zM425.02 554.59 a7.5 7.5 0 1 0 15 0 a7.5 7.5 0 1 0 -15 0zM360.07 517.09 a7.5 7.5 0 1 0 15 0 a7.5 7.5 0 1 0 -15 0zM619.88 67.09 a7.5 7.5 0 1 0 15 0 a7.5 7.5 0 1 0 -15 0zM684.84 104.59 a7.5 7.5 0 1 0 15 0 a7.5 7.5 0 1 0 -15 0zM684.84 179.59 a7.5 7.5 0 1 0 15 0 a7.5 7.5 0 1 0 -15 0zM619.88 217.09 a7.5 7.5 0 1 0 15 0 a7.5 7.5 0 1 0 -15 0zM554.93 179.59 a7.5 7.5 0 1 0 15 0 a7.5 7.5 0 1 0 -15 0zM554.93 104.59 a7.5 7.5 0 1 0 15 0 a7.5 7.5 0 1 0 -15 0zM814.74 -45.41 a7.5 7.5 0 1 0 15 0 a7.5 7.5 0 1 0 -15 0zM879.7 -7.91 a7.5 7.5 0 1 0 15 0 a7.5 7.5 0 1 0 -15 0zM879.7 67.09 a7.5 7.5 0 1 0 15 0 a7.5 7.5 0 1 0 -15 0zM814.74 104.59 a7.5 7.5 0 1 0 15 0 a7.5 7.5 0 1 0 -15 0zM749.79 67.09 a7.5 7.5 0 1 0 15 0 a7.5 7.5 0 1 0 -15 0zM749.79 -7.91 a7.5 7.5 0 1 0 15 0 a7.5 7.5 0 1 0 -15 0zM814.74 404.59 a7.5 7.5 0 1 0 15 0 a7.5 7.5 0 1 0 -15 0zM879.7 442.09 a7.5 7.5 0 1 0 15 0 a7.5 7.5 0 1 0 -15 0zM879.7 517.09 a7.5 7.5 0 1 0 15 0 a7.5 7.5 0 1 0 -15 0zM814.74 554.59 a7.5 7.5 0 1 0 15 0 a7.5 7.5 0 1 0 -15 0zM749.79 517.09 a7.5 7.5 0 1 0 15 0 a7.5 7.5 0 1 0 -15 0zM749.79 442.09 a7.5 7.5 0 1 0 15 0 a7.5 7.5 0 1 0 -15 0zM944.65 554.59 a7.5 7.5 0 1 0 15 0 a7.5 7.5 0 1 0 -15 0zM944.65 629.59 a7.5 7.5 0 1 0 15 0 a7.5 7.5 0 1 0 -15 0zM879.7 667.09 a7.5 7.5 0 1 0 15 0 a7.5 7.5 0 1 0 -15 0zM814.74 629.59 a7.5 7.5 0 1 0 15 0 a7.5 7.5 0 1 0 -15 0zM1204.47 -45.41 a7.5 7.5 0 1 0 15 0 a7.5 7.5 0 1 0 -15 0zM1269.42 -7.91 a7.5 7.5 0 1 0 15 0 a7.5 7.5 0 1 0 -15 0zM1269.42 67.09 a7.5 7.5 0 1 0 15 0 a7.5 7.5 0 1 0 -15 0zM1204.47 104.59 a7.5 7.5 0 1 0 15 0 a7.5 7.5 0 1 0 -15 0zM1139.51 67.09 a7.5 7.5 0 1 0 15 0 a7.5 7.5 0 1 0 -15 0zM1139.51 -7.91 a7.5 7.5 0 1 0 15 0 a7.5 7.5 0 1 0 -15 0zM1334.37 104.59 a7.5 7.5 0 1 0 15 0 a7.5 7.5 0 1 0 -15 0zM1334.37 179.59 a7.5 7.5 0 1 0 15 0 a7.5 7.5 0 1 0 -15 0zM1269.42 217.09 a7.5 7.5 0 1 0 15 0 a7.5 7.5 0 1 0 -15 0zM1204.47 179.59 a7.5 7.5 0 1 0 15 0 a7.5 7.5 0 1 0 -15 0zM1204.47 404.59 a7.5 7.5 0 1 0 15 0 a7.5 7.5 0 1 0 -15 0zM1269.42 442.09 a7.5 7.5 0 1 0 15 0 a7.5 7.5 0 1 0 -15 0zM1269.42 517.09 a7.5 7.5 0 1 0 15 0 a7.5 7.5 0 1 0 -15 0zM1204.47 554.59 a7.5 7.5 0 1 0 15 0 a7.5 7.5 0 1 0 -15 0zM1139.51 517.09 a7.5 7.5 0 1 0 15 0 a7.5 7.5 0 1 0 -15 0zM1139.51 442.09 a7.5 7.5 0 1 0 15 0 a7.5 7.5 0 1 0 -15 0zM1399.33 292.09 a7.5 7.5 0 1 0 15 0 a7.5 7.5 0 1 0 -15 0zM1464.28 329.59 a7.5 7.5 0 1 0 15 0 a7.5 7.5 0 1 0 -15 0zM1464.28 404.59 a7.5 7.5 0 1 0 15 0 a7.5 7.5 0 1 0 -15 0zM1399.33 442.09 a7.5 7.5 0 1 0 15 0 a7.5 7.5 0 1 0 -15 0zM1334.38 404.59 a7.5 7.5 0 1 0 15 0 a7.5 7.5 0 1 0 -15 0zM1334.38 329.59 a7.5 7.5 0 1 0 15 0 a7.5 7.5 0 1 0 -15 0zM1399.33 517.09 a7.5 7.5 0 1 0 15 0 a7.5 7.5 0 1 0 -15 0zM1464.28 554.59 a7.5 7.5 0 1 0 15 0 a7.5 7.5 0 1 0 -15 0zM1464.28 629.59 a7.5 7.5 0 1 0 15 0 a7.5 7.5 0 1 0 -15 0zM1399.33 667.09 a7.5 7.5 0 1 0 15 0 a7.5 7.5 0 1 0 -15 0zM1334.38 629.59 a7.5 7.5 0 1 0 15 0 a7.5 7.5 0 1 0 -15 0zM1334.38 554.59 a7.5 7.5 0 1 0 15 0 a7.5 7.5 0 1 0 -15 0zM1529.24 67.09 a7.5 7.5 0 1 0 15 0 a7.5 7.5 0 1 0 -15 0zM1594.19 104.59 a7.5 7.5 0 1 0 15 0 a7.5 7.5 0 1 0 -15 0zM1594.19 179.59 a7.5 7.5 0 1 0 15 0 a7.5 7.5 0 1 0 -15 0zM1529.24 217.09 a7.5 7.5 0 1 0 15 0 a7.5 7.5 0 1 0 -15 0zM1464.28 179.59 a7.5 7.5 0 1 0 15 0 a7.5 7.5 0 1 0 -15 0zM1464.28 104.59 a7.5 7.5 0 1 0 15 0 a7.5 7.5 0 1 0 -15 0zM1529.24 292.09 a7.5 7.5 0 1 0 15 0 a7.5 7.5 0 1 0 -15 0zM1594.19 329.59 a7.5 7.5 0 1 0 15 0 a7.5 7.5 0 1 0 -15 0zM1594.19 404.59 a7.5 7.5 0 1 0 15 0 a7.5 7.5 0 1 0 -15 0zM1529.24 442.09 a7.5 7.5 0 1 0 15 0 a7.5 7.5 0 1 0 -15 0z" fill="#03305d"></path><path d="M9.12 -49.37L52.42 -24.37L52.42 25.63L9.12 50.63L-34.18 25.63L-34.18 -24.37zM52.42 25.63L95.73 50.63L95.73 100.63L52.42 125.63L9.12 100.63L9.12 50.63zM9.12 250.63L52.42 275.63L52.42 325.63L9.12 350.63L-34.18 325.63L-34.18 275.63zM9.12 400.63L52.42 425.63L52.42 475.63L9.12 500.63L-34.18 475.63L-34.18 425.63zM268.94 -49.37L312.24 -24.37L312.24 25.63L268.94 50.63L225.63 25.63L225.63 -24.37zM312.24 25.63L355.54 50.63L355.54 100.63L312.24 125.63L268.94 100.63L268.94 50.63zM268.94 250.63L312.24 275.63L312.24 325.63L268.94 350.63L225.63 325.63L225.63 275.63zM312.24 325.63L355.54 350.63L355.54 400.63L312.24 425.63L268.94 400.63L268.94 350.63zM398.84 175.63L442.15 200.63L442.15 250.63L398.84 275.63L355.54 250.63L355.54 200.63zM398.84 475.63L442.15 500.63L442.15 550.63L398.84 575.63L355.54 550.63L355.54 500.63zM485.45 25.63L528.75 50.63L528.75 100.63L485.45 125.63L442.15 100.63L442.15 50.63zM442.15 100.63L485.45 125.63L485.45 175.63L442.15 200.63L398.84 175.63L398.84 125.63zM528.75 400.63L572.05 425.63L572.05 475.63L528.75 500.63L485.45 475.63L485.45 425.63zM615.36 -49.37L658.66 -24.37L658.66 25.63L615.36 50.63L572.05 25.63L572.05 -24.37zM615.36 250.63L658.66 275.63L658.66 325.63L615.36 350.63L572.05 325.63L572.05 275.63zM658.66 325.63L701.96 350.63L701.96 400.63L658.66 425.63L615.36 400.63L615.36 350.63zM615.36 400.63L658.66 425.63L658.66 475.63L615.36 500.63L572.05 475.63L572.05 425.63zM701.96 -49.37L745.26 -24.37L745.26 25.63L701.96 50.63L658.66 25.63L658.66 -24.37zM701.96 250.63L745.26 275.63L745.26 325.63L701.96 350.63L658.66 325.63L658.66 275.63zM788.57 -49.37L831.87 -24.37L831.87 25.63L788.57 50.63L745.26 25.63L745.26 -24.37zM788.57 250.63L831.87 275.63L831.87 325.63L788.57 350.63L745.26 325.63L745.26 275.63zM875.17 100.63L918.47 125.63L918.47 175.63L875.17 200.63L831.87 175.63L831.87 125.63zM961.78 -49.37L1005.08 -24.37L1005.08 25.63L961.78 50.63L918.47 25.63L918.47 -24.37zM1005.08 175.63L1048.38 200.63L1048.38 250.63L1005.08 275.63L961.78 250.63L961.78 200.63zM1005.08 475.63L1048.38 500.63L1048.38 550.63L1005.08 575.63L961.78 550.63L961.78 500.63zM1091.68 25.63L1134.98 50.63L1134.98 100.63L1091.68 125.63L1048.38 100.63L1048.38 50.63zM1048.38 100.63L1091.68 125.63L1091.68 175.63L1048.38 200.63L1005.08 175.63L1005.08 125.63zM1048.38 250.63L1091.68 275.63L1091.68 325.63L1048.38 350.63L1005.08 325.63L1005.08 275.63zM1091.68 475.63L1134.98 500.63L1134.98 550.63L1091.68 575.63L1048.38 550.63L1048.38 500.63zM1134.98 100.63L1178.29 125.63L1178.29 175.63L1134.98 200.63L1091.68 175.63L1091.68 125.63zM1178.29 325.63L1221.59 350.63L1221.59 400.63L1178.29 425.63L1134.98 400.63L1134.98 350.63zM1134.98 400.63L1178.29 425.63L1178.29 475.63L1134.98 500.63L1091.68 475.63L1091.68 425.63zM1221.59 100.63L1264.89 125.63L1264.89 175.63L1221.59 200.63L1178.29 175.63L1178.29 125.63zM1264.89 175.63L1308.19 200.63L1308.19 250.63L1264.89 275.63L1221.59 250.63L1221.59 200.63zM1221.59 400.63L1264.89 425.63L1264.89 475.63L1221.59 500.63L1178.29 475.63L1178.29 425.63zM1308.19 -49.37L1351.5 -24.37L1351.5 25.63L1308.19 50.63L1264.89 25.63L1264.89 -24.37zM1351.5 325.63L1394.8 350.63L1394.8 400.63L1351.5 425.63L1308.19 400.63L1308.19 350.63zM1308.19 400.63L1351.5 425.63L1351.5 475.63L1308.19 500.63L1264.89 475.63L1264.89 425.63zM1438.1 175.63L1481.4 200.63L1481.4 250.63L1438.1 275.63L1394.8 250.63L1394.8 200.63zM1438.1 475.63L1481.4 500.63L1481.4 550.63L1438.1 575.63L1394.8 550.63L1394.8 500.63z" stroke="rgba(6, 80, 156, 0.93)" stroke-width="2"></path></g><defs><mask id="SvgjsMask1000"><rect width="1440" height="560" fill="#ffffff"></rect></mask></defs></svg>