<svg xmlns="http://www.w3.org/2000/svg" version="1.1" xmlns:xlink="http://www.w3.org/1999/xlink" xmlns:svgjs="http://svgjs.com/svgjs" width="1440" height="560" preserveAspectRatio="none" viewBox="0 0 1440 560"><g mask="url(&quot;#SvgjsMask1071&quot;)" fill="none"><rect width="1440" height="560" x="0" y="0" fill="#0e2a47"></rect><path d="M620 467L386 233" stroke-width="10" stroke="url(#SvgjsLinearGradient1072)" stroke-linecap="round" class="BottomRight"></path><path d="M979 161L1319 501" stroke-width="8" stroke="url(#SvgjsLinearGradient1072)" stroke-linecap="round" class="BottomRight"></path><path d="M130 557L-117 310" stroke-width="10" stroke="url(#SvgjsLinearGradient1073)" stroke-linecap="round" class="TopLeft"></path><path d="M12 541L335 864" stroke-width="6" stroke="url(#SvgjsLinearGradient1073)" stroke-linecap="round" class="TopLeft"></path><path d="M538 527L189 178" stroke-width="10" stroke="url(#SvgjsLinearGradient1073)" stroke-linecap="round" class="TopLeft"></path><path d="M1123 213L1420 510" stroke-width="6" stroke="url(#SvgjsLinearGradient1072)" stroke-linecap="round" class="BottomRight"></path><path d="M645 182L246 -217" stroke-width="10" stroke="url(#SvgjsLinearGradient1073)" stroke-linecap="round" class="TopLeft"></path><path d="M902 393L535 26" stroke-width="8" stroke="url(#SvgjsLinearGradient1073)" stroke-linecap="round" class="TopLeft"></path><path d="M125 515L295 685" stroke-width="10" stroke="url(#SvgjsLinearGradient1073)" stroke-linecap="round" class="TopLeft"></path><path d="M1409 119L1626 336" stroke-width="6" stroke="url(#SvgjsLinearGradient1073)" stroke-linecap="round" class="TopLeft"></path><path d="M276 454L603 781" stroke-width="10" stroke="url(#SvgjsLinearGradient1073)" stroke-linecap="round" class="TopLeft"></path><path d="M233 473L-168 72" stroke-width="10" stroke="url(#SvgjsLinearGradient1073)" stroke-linecap="round" class="TopLeft"></path><path d="M895 12L1202 319" stroke-width="6" stroke="url(#SvgjsLinearGradient1072)" stroke-linecap="round" class="BottomRight"></path><path d="M447 62L624 239" stroke-width="10" stroke="url(#SvgjsLinearGradient1072)" stroke-linecap="round" class="BottomRight"></path><path d="M973 335L1277 639" stroke-width="10" stroke="url(#SvgjsLinearGradient1073)" stroke-linecap="round" class="TopLeft"></path><path d="M1320 477L1512 669" stroke-width="8" stroke="url(#SvgjsLinearGradient1073)" stroke-linecap="round" class="TopLeft"></path><path d="M82 150L-242 -174" stroke-width="10" stroke="url(#SvgjsLinearGradient1072)" stroke-linecap="round" class="BottomRight"></path><path d="M327 406L718 797" stroke-width="10" stroke="url(#SvgjsLinearGradient1073)" stroke-linecap="round" class="TopLeft"></path><path d="M235 315L25 105" stroke-width="10" stroke="url(#SvgjsLinearGradient1073)" stroke-linecap="round" class="TopLeft"></path><path d="M383 300L65 -18" stroke-width="10" stroke="url(#SvgjsLinearGradient1072)" stroke-linecap="round" class="BottomRight"></path><path d="M918 508L672 262" stroke-width="8" stroke="url(#SvgjsLinearGradient1073)" stroke-linecap="round" class="TopLeft"></path><path d="M1056 89L1389 422" stroke-width="10" stroke="url(#SvgjsLinearGradient1072)" stroke-linecap="round" class="BottomRight"></path><path d="M826 341L1183 698" stroke-width="10" stroke="url(#SvgjsLinearGradient1073)" stroke-linecap="round" class="TopLeft"></path><path d="M466 316L752 602" stroke-width="8" stroke="url(#SvgjsLinearGradient1072)" stroke-linecap="round" class="BottomRight"></path><path d="M428 531L812 915" stroke-width="8" stroke="url(#SvgjsLinearGradient1072)" stroke-linecap="round" class="BottomRight"></path><path d="M1060 209L1406 555" stroke-width="8" stroke="url(#SvgjsLinearGradient1072)" stroke-linecap="round" class="BottomRight"></path><path d="M1201 188L921 -92" stroke-width="6" stroke="url(#SvgjsLinearGradient1072)" stroke-linecap="round" class="BottomRight"></path><path d="M987 203L772 -12" stroke-width="6" stroke="url(#SvgjsLinearGradient1073)" stroke-linecap="round" class="TopLeft"></path><path d="M568 206L250 -112" stroke-width="10" stroke="url(#SvgjsLinearGradient1073)" stroke-linecap="round" class="TopLeft"></path><path d="M262 198L-11 -75" stroke-width="6" stroke="url(#SvgjsLinearGradient1072)" stroke-linecap="round" class="BottomRight"></path><path d="M1136 43L939 -154" stroke-width="10" stroke="url(#SvgjsLinearGradient1073)" stroke-linecap="round" class="TopLeft"></path><path d="M76 273L458 655" stroke-width="8" stroke="url(#SvgjsLinearGradient1073)" stroke-linecap="round" class="TopLeft"></path><path d="M497 454L292 249" stroke-width="10" stroke="url(#SvgjsLinearGradient1072)" stroke-linecap="round" class="BottomRight"></path><path d="M509 109L850 450" stroke-width="8" stroke="url(#SvgjsLinearGradient1072)" stroke-linecap="round" class="BottomRight"></path><path d="M1438 375L1113 50" stroke-width="6" stroke="url(#SvgjsLinearGradient1072)" stroke-linecap="round" class="BottomRight"></path><path d="M1433 56L1808 431" stroke-width="10" stroke="url(#SvgjsLinearGradient1072)" stroke-linecap="round" class="BottomRight"></path><path d="M1342 244L947 -151" stroke-width="6" stroke="url(#SvgjsLinearGradient1073)" stroke-linecap="round" class="TopLeft"></path><path d="M48 511L241 704" stroke-width="10" stroke="url(#SvgjsLinearGradient1072)" stroke-linecap="round" class="BottomRight"></path><path d="M970 26L1252 308" stroke-width="8" stroke="url(#SvgjsLinearGradient1073)" stroke-linecap="round" class="TopLeft"></path></g><defs><mask id="SvgjsMask1071"><rect width="1440" height="560" fill="#ffffff"></rect></mask><linearGradient x1="0%" y1="0%" x2="100%" y2="100%" id="SvgjsLinearGradient1072"><stop stop-color="rgba(28, 83, 142, 0)" offset="0"></stop><stop stop-color="#1c538e" offset="1"></stop></linearGradient><linearGradient x1="100%" y1="100%" x2="0%" y2="0%" id="SvgjsLinearGradient1073"><stop stop-color="rgba(28, 83, 142, 0)" offset="0"></stop><stop stop-color="#1c538e" offset="1"></stop></linearGradient></defs></svg>