<svg xmlns="http://www.w3.org/2000/svg" version="1.1" xmlns:xlink="http://www.w3.org/1999/xlink" xmlns:svgjs="http://svgjs.com/svgjs" width="1440" height="560" preserveAspectRatio="none" viewBox="0 0 1440 560"><g mask="url(&quot;#SvgjsMask1000&quot;)" fill="none"><rect width="1440" height="560" x="0" y="0" fill="#0e2a47"></rect><path d="M-68.55 376.27L-68.55 376.27" stroke="#132e65" stroke-width="1.5"></path><path d="M-68.55 376.27L-43.01 489.04" stroke="#132e65" stroke-width="1.5"></path><path d="M-68.55 376.27L84.37 402.5" stroke="#132e65" stroke-width="1.5"></path><path d="M-68.55 376.27L78.09 502.49" stroke="#132e65" stroke-width="1.5"></path><path d="M-68.55 376.27L190.25 388.58" stroke="#132e65" stroke-width="1.5"></path><path d="M-43.01 489.04L-43.01 489.04" stroke="#132e65" stroke-width="1.5"></path><path d="M-43.01 489.04L78.09 502.49" stroke="#132e65" stroke-width="1.5"></path><path d="M-43.01 489.04L84.37 402.5" stroke="#132e65" stroke-width="1.5"></path><path d="M-43.01 489.04L-73.03 711.24" stroke="#132e65" stroke-width="1.5"></path><path d="M-43.01 489.04L190.25 388.58" stroke="#132e65" stroke-width="1.5"></path><path d="M-73.03 711.24L-73.03 711.24" stroke="#132e65" stroke-width="1.5"></path><path d="M-73.03 711.24L89.13 710.78" stroke="#132e65" stroke-width="1.5"></path><path d="M84.37 402.5L84.37 402.5" stroke="#132e65" stroke-width="1.5"></path><path d="M84.37 402.5L78.09 502.49" stroke="#132e65" stroke-width="1.5"></path><path d="M84.37 402.5L190.25 388.58" stroke="#132e65" stroke-width="1.5"></path><path d="M78.09 502.49L78.09 502.49" stroke="#132e65" stroke-width="1.5"></path><path d="M78.09 502.49L190.25 388.58" stroke="#132e65" stroke-width="1.5"></path><path d="M89.13 710.78L89.13 710.78" stroke="#132e65" stroke-width="1.5"></path><path d="M89.13 710.78L209.87 673.31" stroke="#132e65" stroke-width="1.5"></path><path d="M89.13 710.78L78.09 502.49" stroke="#132e65" stroke-width="1.5"></path><path d="M89.13 710.78L247.05 551.86" stroke="#132e65" stroke-width="1.5"></path><path d="M89.13 710.78L-43.01 489.04" stroke="#132e65" stroke-width="1.5"></path><path d="M190.25 388.58L190.25 388.58" stroke="#132e65" stroke-width="1.5"></path><path d="M190.25 388.58L247.05 551.86" stroke="#132e65" stroke-width="1.5"></path><path d="M247.05 551.86L247.05 551.86" stroke="#132e65" stroke-width="1.5"></path><path d="M247.05 551.86L209.87 673.31" stroke="#132e65" stroke-width="1.5"></path><path d="M247.05 551.86L364.24 496.5" stroke="#132e65" stroke-width="1.5"></path><path d="M247.05 551.86L78.09 502.49" stroke="#132e65" stroke-width="1.5"></path><path d="M247.05 551.86L389.05 657.19" stroke="#132e65" stroke-width="1.5"></path><path d="M209.87 673.31L209.87 673.31" stroke="#132e65" stroke-width="1.5"></path><path d="M209.87 673.31L389.05 657.19" stroke="#132e65" stroke-width="1.5"></path><path d="M209.87 673.31L78.09 502.49" stroke="#132e65" stroke-width="1.5"></path><path d="M209.87 673.31L364.24 496.5" stroke="#132e65" stroke-width="1.5"></path><path d="M368.1 348.02L368.1 348.02" stroke="#132e65" stroke-width="1.5"></path><path d="M368.1 348.02L364.24 496.5" stroke="#132e65" stroke-width="1.5"></path><path d="M368.1 348.02L529.37 347.09" stroke="#132e65" stroke-width="1.5"></path><path d="M368.1 348.02L190.25 388.58" stroke="#132e65" stroke-width="1.5"></path><path d="M368.1 348.02L533.41 496.32" stroke="#132e65" stroke-width="1.5"></path><path d="M368.1 348.02L247.05 551.86" stroke="#132e65" stroke-width="1.5"></path><path d="M368.1 348.02L84.37 402.5" stroke="#132e65" stroke-width="1.5"></path><path d="M364.24 496.5L364.24 496.5" stroke="#132e65" stroke-width="1.5"></path><path d="M364.24 496.5L389.05 657.19" stroke="#132e65" stroke-width="1.5"></path><path d="M364.24 496.5L533.41 496.32" stroke="#132e65" stroke-width="1.5"></path><path d="M364.24 496.5L190.25 388.58" stroke="#132e65" stroke-width="1.5"></path><path d="M364.24 496.5L529.37 347.09" stroke="#132e65" stroke-width="1.5"></path><path d="M389.05 657.19L389.05 657.19" stroke="#132e65" stroke-width="1.5"></path><path d="M389.05 657.19L545.24 697.93" stroke="#132e65" stroke-width="1.5"></path><path d="M389.05 657.19L533.41 496.32" stroke="#132e65" stroke-width="1.5"></path><path d="M389.05 657.19L659.43 640.18" stroke="#132e65" stroke-width="1.5"></path><path d="M529.37 347.09L529.37 347.09" stroke="#132e65" stroke-width="1.5"></path><path d="M529.37 347.09L533.41 496.32" stroke="#132e65" stroke-width="1.5"></path><path d="M529.37 347.09L696.6 363.94" stroke="#132e65" stroke-width="1.5"></path><path d="M529.37 347.09L710.02 257.15" stroke="#132e65" stroke-width="1.5"></path><path d="M533.41 496.32L533.41 496.32" stroke="#132e65" stroke-width="1.5"></path><path d="M533.41 496.32L662.66 520.53" stroke="#132e65" stroke-width="1.5"></path><path d="M533.41 496.32L659.43 640.18" stroke="#132e65" stroke-width="1.5"></path><path d="M545.24 697.93L545.24 697.93" stroke="#132e65" stroke-width="1.5"></path><path d="M545.24 697.93L659.43 640.18" stroke="#132e65" stroke-width="1.5"></path><path d="M545.24 697.93L533.41 496.32" stroke="#132e65" stroke-width="1.5"></path><path d="M710.02 257.15L710.02 257.15" stroke="#132e65" stroke-width="1.5"></path><path d="M710.02 257.15L696.6 363.94" stroke="#132e65" stroke-width="1.5"></path><path d="M710.02 257.15L793.36 407.76" stroke="#132e65" stroke-width="1.5"></path><path d="M710.02 257.15L794.21 492.82" stroke="#132e65" stroke-width="1.5"></path><path d="M710.02 257.15L945.21 366.54" stroke="#132e65" stroke-width="1.5"></path><path d="M696.6 363.94L696.6 363.94" stroke="#132e65" stroke-width="1.5"></path><path d="M696.6 363.94L793.36 407.76" stroke="#132e65" stroke-width="1.5"></path><path d="M696.6 363.94L662.66 520.53" stroke="#132e65" stroke-width="1.5"></path><path d="M662.66 520.53L662.66 520.53" stroke="#132e65" stroke-width="1.5"></path><path d="M662.66 520.53L659.43 640.18" stroke="#132e65" stroke-width="1.5"></path><path d="M662.66 520.53L794.21 492.82" stroke="#132e65" stroke-width="1.5"></path><path d="M659.43 640.18L659.43 640.18" stroke="#132e65" stroke-width="1.5"></path><path d="M659.43 640.18L799.64 684.17" stroke="#132e65" stroke-width="1.5"></path><path d="M793.36 407.76L793.36 407.76" stroke="#132e65" stroke-width="1.5"></path><path d="M793.36 407.76L794.21 492.82" stroke="#132e65" stroke-width="1.5"></path><path d="M793.36 407.76L945.21 366.54" stroke="#132e65" stroke-width="1.5"></path><path d="M793.36 407.76L662.66 520.53" stroke="#132e65" stroke-width="1.5"></path><path d="M794.21 492.82L794.21 492.82" stroke="#132e65" stroke-width="1.5"></path><path d="M794.21 492.82L696.6 363.94" stroke="#132e65" stroke-width="1.5"></path><path d="M794.21 492.82L967.7 553.12" stroke="#132e65" stroke-width="1.5"></path><path d="M794.21 492.82L799.64 684.17" stroke="#132e65" stroke-width="1.5"></path><path d="M799.64 684.17L799.64 684.17" stroke="#132e65" stroke-width="1.5"></path><path d="M954.24 -43.57L954.24 -43.57" stroke="#132e65" stroke-width="1.5"></path><path d="M954.24 -43.57L964.41 50.65" stroke="#132e65" stroke-width="1.5"></path><path d="M954.24 -43.57L1132 94.15" stroke="#132e65" stroke-width="1.5"></path><path d="M954.24 -43.57L1007.72 224.72" stroke="#132e65" stroke-width="1.5"></path><path d="M954.24 -43.57L1113.71 215.84" stroke="#132e65" stroke-width="1.5"></path><path d="M954.24 -43.57L1289.33 -106.68" stroke="#132e65" stroke-width="1.5"></path><path d="M954.24 -43.57L1280.77 61.97" stroke="#132e65" stroke-width="1.5"></path><path d="M964.41 50.65L964.41 50.65" stroke="#132e65" stroke-width="1.5"></path><path d="M964.41 50.65L1132 94.15" stroke="#132e65" stroke-width="1.5"></path><path d="M964.41 50.65L1007.72 224.72" stroke="#132e65" stroke-width="1.5"></path><path d="M964.41 50.65L1113.71 215.84" stroke="#132e65" stroke-width="1.5"></path><path d="M964.41 50.65L1237.62 189.18" stroke="#132e65" stroke-width="1.5"></path><path d="M964.41 50.65L945.21 366.54" stroke="#132e65" stroke-width="1.5"></path><path d="M1007.72 224.72L1007.72 224.72" stroke="#132e65" stroke-width="1.5"></path><path d="M1007.72 224.72L1113.71 215.84" stroke="#132e65" stroke-width="1.5"></path><path d="M1007.72 224.72L945.21 366.54" stroke="#132e65" stroke-width="1.5"></path><path d="M1007.72 224.72L1132 94.15" stroke="#132e65" stroke-width="1.5"></path><path d="M945.21 366.54L945.21 366.54" stroke="#132e65" stroke-width="1.5"></path><path d="M945.21 366.54L1100.79 395.58" stroke="#132e65" stroke-width="1.5"></path><path d="M945.21 366.54L967.7 553.12" stroke="#132e65" stroke-width="1.5"></path><path d="M967.7 553.12L967.7 553.12" stroke="#132e65" stroke-width="1.5"></path><path d="M967.7 553.12L1010.29 671.6" stroke="#132e65" stroke-width="1.5"></path><path d="M967.7 553.12L1138.04 534.84" stroke="#132e65" stroke-width="1.5"></path><path d="M967.7 553.12L1106.95 686.89" stroke="#132e65" stroke-width="1.5"></path><path d="M1010.29 671.6L1010.29 671.6" stroke="#132e65" stroke-width="1.5"></path><path d="M1010.29 671.6L1106.95 686.89" stroke="#132e65" stroke-width="1.5"></path><path d="M1010.29 671.6L1138.04 534.84" stroke="#132e65" stroke-width="1.5"></path><path d="M1132 94.15L1132 94.15" stroke="#132e65" stroke-width="1.5"></path><path d="M1132 94.15L1113.71 215.84" stroke="#132e65" stroke-width="1.5"></path><path d="M1132 94.15L1237.62 189.18" stroke="#132e65" stroke-width="1.5"></path><path d="M1113.71 215.84L1113.71 215.84" stroke="#132e65" stroke-width="1.5"></path><path d="M1100.79 395.58L1100.79 395.58" stroke="#132e65" stroke-width="1.5"></path><path d="M1100.79 395.58L1138.04 534.84" stroke="#132e65" stroke-width="1.5"></path><path d="M1138.04 534.84L1138.04 534.84" stroke="#132e65" stroke-width="1.5"></path><path d="M1138.04 534.84L1262.88 498.97" stroke="#132e65" stroke-width="1.5"></path><path d="M1106.95 686.89L1106.95 686.89" stroke="#132e65" stroke-width="1.5"></path><path d="M1106.95 686.89L1250.61 670.86" stroke="#132e65" stroke-width="1.5"></path><path d="M1106.95 686.89L1138.04 534.84" stroke="#132e65" stroke-width="1.5"></path><path d="M1289.33 -106.68L1289.33 -106.68" stroke="#132e65" stroke-width="1.5"></path><path d="M1289.33 -106.68L1280.77 61.97" stroke="#132e65" stroke-width="1.5"></path><path d="M1289.33 -106.68L1427.24 92.28" stroke="#132e65" stroke-width="1.5"></path><path d="M1289.33 -106.68L1132 94.15" stroke="#132e65" stroke-width="1.5"></path><path d="M1289.33 -106.68L1548.15 -75.2" stroke="#132e65" stroke-width="1.5"></path><path d="M1289.33 -106.68L1237.62 189.18" stroke="#132e65" stroke-width="1.5"></path><path d="M1280.77 61.97L1280.77 61.97" stroke="#132e65" stroke-width="1.5"></path><path d="M1280.77 61.97L1237.62 189.18" stroke="#132e65" stroke-width="1.5"></path><path d="M1280.77 61.97L1427.24 92.28" stroke="#132e65" stroke-width="1.5"></path><path d="M1280.77 61.97L1132 94.15" stroke="#132e65" stroke-width="1.5"></path><path d="M1237.62 189.18L1237.62 189.18" stroke="#132e65" stroke-width="1.5"></path><path d="M1237.62 189.18L1113.71 215.84" stroke="#132e65" stroke-width="1.5"></path><path d="M1298.17 390.81L1298.17 390.81" stroke="#132e65" stroke-width="1.5"></path><path d="M1298.17 390.81L1262.88 498.97" stroke="#132e65" stroke-width="1.5"></path><path d="M1298.17 390.81L1411.04 406.29" stroke="#132e65" stroke-width="1.5"></path><path d="M1298.17 390.81L1431.25 487.93" stroke="#132e65" stroke-width="1.5"></path><path d="M1298.17 390.81L1416.84 256.12" stroke="#132e65" stroke-width="1.5"></path><path d="M1262.88 498.97L1262.88 498.97" stroke="#132e65" stroke-width="1.5"></path><path d="M1250.61 670.86L1250.61 670.86" stroke="#132e65" stroke-width="1.5"></path><path d="M1250.61 670.86L1393.88 697.08" stroke="#132e65" stroke-width="1.5"></path><path d="M1250.61 670.86L1262.88 498.97" stroke="#132e65" stroke-width="1.5"></path><path d="M1250.61 670.86L1138.04 534.84" stroke="#132e65" stroke-width="1.5"></path><path d="M1250.61 670.86L1010.29 671.6" stroke="#132e65" stroke-width="1.5"></path><path d="M1427.24 92.28L1427.24 92.28" stroke="#132e65" stroke-width="1.5"></path><path d="M1427.24 92.28L1582.41 86.5" stroke="#132e65" stroke-width="1.5"></path><path d="M1427.24 92.28L1416.84 256.12" stroke="#132e65" stroke-width="1.5"></path><path d="M1427.24 92.28L1548.15 -75.2" stroke="#132e65" stroke-width="1.5"></path><path d="M1416.84 256.12L1416.84 256.12" stroke="#132e65" stroke-width="1.5"></path><path d="M1416.84 256.12L1411.04 406.29" stroke="#132e65" stroke-width="1.5"></path><path d="M1416.84 256.12L1590.3 259" stroke="#132e65" stroke-width="1.5"></path><path d="M1411.04 406.29L1411.04 406.29" stroke="#132e65" stroke-width="1.5"></path><path d="M1411.04 406.29L1431.25 487.93" stroke="#132e65" stroke-width="1.5"></path><path d="M1411.04 406.29L1262.88 498.97" stroke="#132e65" stroke-width="1.5"></path><path d="M1411.04 406.29L1584.74 370.77" stroke="#132e65" stroke-width="1.5"></path><path d="M1411.04 406.29L1600.33 491.3" stroke="#132e65" stroke-width="1.5"></path><path d="M1431.25 487.93L1431.25 487.93" stroke="#132e65" stroke-width="1.5"></path><path d="M1431.25 487.93L1262.88 498.97" stroke="#132e65" stroke-width="1.5"></path><path d="M1393.88 697.08L1393.88 697.08" stroke="#132e65" stroke-width="1.5"></path><path d="M1393.88 697.08L1582.73 676.69" stroke="#132e65" stroke-width="1.5"></path><path d="M1548.15 -75.2L1548.15 -75.2" stroke="#132e65" stroke-width="1.5"></path><path d="M1548.15 -75.2L1582.41 86.5" stroke="#132e65" stroke-width="1.5"></path><path d="M1548.15 -75.2L1280.77 61.97" stroke="#132e65" stroke-width="1.5"></path><path d="M1548.15 -75.2L1590.3 259" stroke="#132e65" stroke-width="1.5"></path><path d="M1582.41 86.5L1582.41 86.5" stroke="#132e65" stroke-width="1.5"></path><path d="M1582.41 86.5L1590.3 259" stroke="#132e65" stroke-width="1.5"></path><path d="M1582.41 86.5L1416.84 256.12" stroke="#132e65" stroke-width="1.5"></path><path d="M1582.41 86.5L1584.74 370.77" stroke="#132e65" stroke-width="1.5"></path><path d="M1590.3 259L1590.3 259" stroke="#132e65" stroke-width="1.5"></path><path d="M1590.3 259L1584.74 370.77" stroke="#132e65" stroke-width="1.5"></path><path d="M1584.74 370.77L1584.74 370.77" stroke="#132e65" stroke-width="1.5"></path><path d="M1600.33 491.3L1600.33 491.3" stroke="#132e65" stroke-width="1.5"></path><path d="M1600.33 491.3L1584.74 370.77" stroke="#132e65" stroke-width="1.5"></path><path d="M1600.33 491.3L1431.25 487.93" stroke="#132e65" stroke-width="1.5"></path><path d="M1600.33 491.3L1582.73 676.69" stroke="#132e65" stroke-width="1.5"></path><path d="M1582.73 676.69L1582.73 676.69" stroke="#132e65" stroke-width="1.5"></path><path d="M1582.73 676.69L1431.25 487.93" stroke="#132e65" stroke-width="1.5"></path><path d="M1582.73 676.69L1584.74 370.77" stroke="#132e65" stroke-width="1.5"></path><path d="M1582.73 676.69L1411.04 406.29" stroke="#132e65" stroke-width="1.5"></path><path d="M1582.73 676.69L1250.61 670.86" stroke="#132e65" stroke-width="1.5"></path><circle r="5" cx="-68.55" cy="376.27" fill="#132e65"></circle><circle r="5" cx="-43.01" cy="489.04" fill="#132e65"></circle><circle r="5" cx="-73.03" cy="711.24" fill="#132e65"></circle><circle r="5" cx="84.37" cy="402.5" fill="#132e65"></circle><circle r="5" cx="78.09" cy="502.49" fill="#132e65"></circle><circle r="5" cx="89.13" cy="710.78" fill="#132e65"></circle><circle r="5" cx="190.25" cy="388.58" fill="#132e65"></circle><circle r="5" cx="247.05" cy="551.86" fill="#132e65"></circle><circle r="5" cx="209.87" cy="673.31" fill="#132e65"></circle><circle r="5" cx="368.1" cy="348.02" fill="#132e65"></circle><circle r="5" cx="364.24" cy="496.5" fill="#132e65"></circle><circle r="5" cx="389.05" cy="657.19" fill="#132e65"></circle><circle r="5" cx="529.37" cy="347.09" fill="#132e65"></circle><circle r="5" cx="533.41" cy="496.32" fill="#132e65"></circle><circle r="5" cx="545.24" cy="697.93" fill="#132e65"></circle><circle r="5" cx="710.02" cy="257.15" fill="#132e65"></circle><circle r="5" cx="696.6" cy="363.94" fill="#132e65"></circle><circle r="5" cx="662.66" cy="520.53" fill="#132e65"></circle><circle r="5" cx="659.43" cy="640.18" fill="#132e65"></circle><circle r="5" cx="793.36" cy="407.76" fill="#132e65"></circle><circle r="5" cx="794.21" cy="492.82" fill="#132e65"></circle><circle r="5" cx="799.64" cy="684.17" fill="#132e65"></circle><circle r="5" cx="954.24" cy="-43.57" fill="#132e65"></circle><circle r="5" cx="964.41" cy="50.65" fill="#132e65"></circle><circle r="5" cx="1007.72" cy="224.72" fill="#132e65"></circle><circle r="5" cx="945.21" cy="366.54" fill="#132e65"></circle><circle r="5" cx="967.7" cy="553.12" fill="#132e65"></circle><circle r="5" cx="1010.29" cy="671.6" fill="#132e65"></circle><circle r="5" cx="1132" cy="94.15" fill="#132e65"></circle><circle r="5" cx="1113.71" cy="215.84" fill="#132e65"></circle><circle r="5" cx="1100.79" cy="395.58" fill="#132e65"></circle><circle r="5" cx="1138.04" cy="534.84" fill="#132e65"></circle><circle r="5" cx="1106.95" cy="686.89" fill="#132e65"></circle><circle r="5" cx="1289.33" cy="-106.68" fill="#132e65"></circle><circle r="5" cx="1280.77" cy="61.97" fill="#132e65"></circle><circle r="5" cx="1237.62" cy="189.18" fill="#132e65"></circle><circle r="5" cx="1298.17" cy="390.81" fill="#132e65"></circle><circle r="5" cx="1262.88" cy="498.97" fill="#132e65"></circle><circle r="5" cx="1250.61" cy="670.86" fill="#132e65"></circle><circle r="5" cx="1427.24" cy="92.28" fill="#132e65"></circle><circle r="5" cx="1416.84" cy="256.12" fill="#132e65"></circle><circle r="5" cx="1411.04" cy="406.29" fill="#132e65"></circle><circle r="5" cx="1431.25" cy="487.93" fill="#132e65"></circle><circle r="5" cx="1393.88" cy="697.08" fill="#132e65"></circle><circle r="5" cx="1548.15" cy="-75.2" fill="#132e65"></circle><circle r="5" cx="1582.41" cy="86.5" fill="#132e65"></circle><circle r="5" cx="1590.3" cy="259" fill="#132e65"></circle><circle r="5" cx="1584.74" cy="370.77" fill="#132e65"></circle><circle r="5" cx="1600.33" cy="491.3" fill="#132e65"></circle><circle r="5" cx="1582.73" cy="676.69" fill="#132e65"></circle><path d="M231.43 549.7L231.43 549.7" stroke="hsl(228.5, 77.2%, 51.5%)" stroke-width="1.5"></path><path d="M231.43 549.7L233.95 649.63" stroke="hsl(228.5, 77.2%, 51.5%)" stroke-width="1.5"></path><path d="M231.43 549.7L70.87 539.19" stroke="hsl(228.5, 77.2%, 51.5%)" stroke-width="1.5"></path><path d="M231.43 549.7L408.65 499.08" stroke="hsl(228.5, 77.2%, 51.5%)" stroke-width="1.5"></path><path d="M494.44 528.35L494.44 528.35" stroke="hsl(228.5, 77.2%, 51.5%)" stroke-width="1.5"></path><path d="M494.44 528.35L408.65 499.08" stroke="hsl(228.5, 77.2%, 51.5%)" stroke-width="1.5"></path><path d="M494.44 528.35L517.26 405.4" stroke="hsl(228.5, 77.2%, 51.5%)" stroke-width="1.5"></path><path d="M494.44 528.35L643.57 495.39" stroke="hsl(228.5, 77.2%, 51.5%)" stroke-width="1.5"></path><path d="M1279.37 369.53L1279.37 369.53" stroke="hsl(228.5, 77.2%, 51.5%)" stroke-width="1.5"></path><path d="M1279.37 369.53L1308.89 236.9" stroke="hsl(228.5, 77.2%, 51.5%)" stroke-width="1.5"></path><path d="M1279.37 369.53L1424.33 394.16" stroke="hsl(228.5, 77.2%, 51.5%)" stroke-width="1.5"></path><path d="M1279.37 369.53L1116.58 357.97" stroke="hsl(228.5, 77.2%, 51.5%)" stroke-width="1.5"></path><path d="M1279.37 369.53L1242.85 549.08" stroke="hsl(228.5, 77.2%, 51.5%)" stroke-width="1.5"></path><path d="M1458.28 62.72L1458.28 62.72" stroke="hsl(228.5, 77.2%, 51.5%)" stroke-width="1.5"></path><path d="M1458.28 62.72L1584.97 62.23" stroke="hsl(228.5, 77.2%, 51.5%)" stroke-width="1.5"></path><path d="M1458.28 62.72L1538.77 -57.72" stroke="hsl(228.5, 77.2%, 51.5%)" stroke-width="1.5"></path><path d="M1433.38 259.83L1433.38 259.83" stroke="hsl(228.5, 77.2%, 51.5%)" stroke-width="1.5"></path><path d="M1433.38 259.83L1308.89 236.9" stroke="hsl(228.5, 77.2%, 51.5%)" stroke-width="1.5"></path><path d="M1433.38 259.83L1424.33 394.16" stroke="hsl(228.5, 77.2%, 51.5%)" stroke-width="1.5"></path><path d="M1433.38 259.83L1609.17 241.7" stroke="hsl(228.5, 77.2%, 51.5%)" stroke-width="1.5"></path><path d="M1433.38 259.83L1279.37 369.53" stroke="hsl(228.5, 77.2%, 51.5%)" stroke-width="1.5"></path><path d="M1609.17 241.7L1609.17 241.7" stroke="hsl(228.5, 77.2%, 51.5%)" stroke-width="1.5"></path><path d="M1609.17 241.7L1584.97 62.23" stroke="hsl(228.5, 77.2%, 51.5%)" stroke-width="1.5"></path><path d="M1609.17 241.7L1458.28 62.72" stroke="hsl(228.5, 77.2%, 51.5%)" stroke-width="1.5"></path><path d="M1609.17 241.7L1424.33 394.16" stroke="hsl(228.5, 77.2%, 51.5%)" stroke-width="1.5"></path><path d="M-91.78 510.77L-91.78 510.77" stroke="hsl(228.5, 77.2%, 51.5%)" stroke-width="1.5"></path><path d="M-91.78 510.77L70.87 539.19" stroke="hsl(228.5, 77.2%, 51.5%)" stroke-width="1.5"></path><path d="M-91.78 510.77L-89.37 679.13" stroke="hsl(228.5, 77.2%, 51.5%)" stroke-width="1.5"></path><path d="M-91.78 510.77L90.79 710.34" stroke="hsl(228.5, 77.2%, 51.5%)" stroke-width="1.5"></path><path d="M-91.78 510.77L231.43 549.7" stroke="hsl(228.5, 77.2%, 51.5%)" stroke-width="1.5"></path><path d="M-89.37 679.13L-89.37 679.13" stroke="hsl(228.5, 77.2%, 51.5%)" stroke-width="1.5"></path><path d="M-89.37 679.13L90.79 710.34" stroke="hsl(228.5, 77.2%, 51.5%)" stroke-width="1.5"></path><path d="M-89.37 679.13L70.87 539.19" stroke="hsl(228.5, 77.2%, 51.5%)" stroke-width="1.5"></path><path d="M70.87 539.19L70.87 539.19" stroke="hsl(228.5, 77.2%, 51.5%)" stroke-width="1.5"></path><path d="M70.87 539.19L90.79 710.34" stroke="hsl(228.5, 77.2%, 51.5%)" stroke-width="1.5"></path><path d="M70.87 539.19L233.95 649.63" stroke="hsl(228.5, 77.2%, 51.5%)" stroke-width="1.5"></path><path d="M90.79 710.34L90.79 710.34" stroke="hsl(228.5, 77.2%, 51.5%)" stroke-width="1.5"></path><path d="M90.79 710.34L233.95 649.63" stroke="hsl(228.5, 77.2%, 51.5%)" stroke-width="1.5"></path><path d="M90.79 710.34L231.43 549.7" stroke="hsl(228.5, 77.2%, 51.5%)" stroke-width="1.5"></path><path d="M233.95 649.63L233.95 649.63" stroke="hsl(228.5, 77.2%, 51.5%)" stroke-width="1.5"></path><path d="M233.95 649.63L364.33 692.97" stroke="hsl(228.5, 77.2%, 51.5%)" stroke-width="1.5"></path><path d="M408.65 499.08L408.65 499.08" stroke="hsl(228.5, 77.2%, 51.5%)" stroke-width="1.5"></path><path d="M408.65 499.08L517.26 405.4" stroke="hsl(228.5, 77.2%, 51.5%)" stroke-width="1.5"></path><path d="M408.65 499.08L364.33 692.97" stroke="hsl(228.5, 77.2%, 51.5%)" stroke-width="1.5"></path><path d="M408.65 499.08L233.95 649.63" stroke="hsl(228.5, 77.2%, 51.5%)" stroke-width="1.5"></path><path d="M364.33 692.97L364.33 692.97" stroke="hsl(228.5, 77.2%, 51.5%)" stroke-width="1.5"></path><path d="M364.33 692.97L543.32 709.05" stroke="hsl(228.5, 77.2%, 51.5%)" stroke-width="1.5"></path><path d="M364.33 692.97L231.43 549.7" stroke="hsl(228.5, 77.2%, 51.5%)" stroke-width="1.5"></path><path d="M364.33 692.97L494.44 528.35" stroke="hsl(228.5, 77.2%, 51.5%)" stroke-width="1.5"></path><path d="M517.26 405.4L517.26 405.4" stroke="hsl(228.5, 77.2%, 51.5%)" stroke-width="1.5"></path><path d="M517.26 405.4L643.57 495.39" stroke="hsl(228.5, 77.2%, 51.5%)" stroke-width="1.5"></path><path d="M517.26 405.4L691.09 368.22" stroke="hsl(228.5, 77.2%, 51.5%)" stroke-width="1.5"></path><path d="M517.26 405.4L652.32 678.38" stroke="hsl(228.5, 77.2%, 51.5%)" stroke-width="1.5"></path><path d="M517.26 405.4L543.32 709.05" stroke="hsl(228.5, 77.2%, 51.5%)" stroke-width="1.5"></path><path d="M543.32 709.05L543.32 709.05" stroke="hsl(228.5, 77.2%, 51.5%)" stroke-width="1.5"></path><path d="M543.32 709.05L652.32 678.38" stroke="hsl(228.5, 77.2%, 51.5%)" stroke-width="1.5"></path><path d="M543.32 709.05L494.44 528.35" stroke="hsl(228.5, 77.2%, 51.5%)" stroke-width="1.5"></path><path d="M543.32 709.05L643.57 495.39" stroke="hsl(228.5, 77.2%, 51.5%)" stroke-width="1.5"></path><path d="M691.09 368.22L691.09 368.22" stroke="hsl(228.5, 77.2%, 51.5%)" stroke-width="1.5"></path><path d="M691.09 368.22L643.57 495.39" stroke="hsl(228.5, 77.2%, 51.5%)" stroke-width="1.5"></path><path d="M691.09 368.22L851.4 367.32" stroke="hsl(228.5, 77.2%, 51.5%)" stroke-width="1.5"></path><path d="M691.09 368.22L822.72 501.63" stroke="hsl(228.5, 77.2%, 51.5%)" stroke-width="1.5"></path><path d="M691.09 368.22L494.44 528.35" stroke="hsl(228.5, 77.2%, 51.5%)" stroke-width="1.5"></path><path d="M643.57 495.39L643.57 495.39" stroke="hsl(228.5, 77.2%, 51.5%)" stroke-width="1.5"></path><path d="M652.32 678.38L652.32 678.38" stroke="hsl(228.5, 77.2%, 51.5%)" stroke-width="1.5"></path><path d="M652.32 678.38L643.57 495.39" stroke="hsl(228.5, 77.2%, 51.5%)" stroke-width="1.5"></path><path d="M652.32 678.38L494.44 528.35" stroke="hsl(228.5, 77.2%, 51.5%)" stroke-width="1.5"></path><path d="M652.32 678.38L822.72 501.63" stroke="hsl(228.5, 77.2%, 51.5%)" stroke-width="1.5"></path><path d="M851.4 367.32L851.4 367.32" stroke="hsl(228.5, 77.2%, 51.5%)" stroke-width="1.5"></path><path d="M851.4 367.32L985.72 343.54" stroke="hsl(228.5, 77.2%, 51.5%)" stroke-width="1.5"></path><path d="M851.4 367.32L822.72 501.63" stroke="hsl(228.5, 77.2%, 51.5%)" stroke-width="1.5"></path><path d="M851.4 367.32L963.95 247.76" stroke="hsl(228.5, 77.2%, 51.5%)" stroke-width="1.5"></path><path d="M851.4 367.32L1011.55 509.51" stroke="hsl(228.5, 77.2%, 51.5%)" stroke-width="1.5"></path><path d="M851.4 367.32L643.57 495.39" stroke="hsl(228.5, 77.2%, 51.5%)" stroke-width="1.5"></path><path d="M822.72 501.63L822.72 501.63" stroke="hsl(228.5, 77.2%, 51.5%)" stroke-width="1.5"></path><path d="M963.95 247.76L963.95 247.76" stroke="hsl(228.5, 77.2%, 51.5%)" stroke-width="1.5"></path><path d="M963.95 247.76L985.72 343.54" stroke="hsl(228.5, 77.2%, 51.5%)" stroke-width="1.5"></path><path d="M985.72 343.54L985.72 343.54" stroke="hsl(228.5, 77.2%, 51.5%)" stroke-width="1.5"></path><path d="M985.72 343.54L1116.58 357.97" stroke="hsl(228.5, 77.2%, 51.5%)" stroke-width="1.5"></path><path d="M985.72 343.54L1011.55 509.51" stroke="hsl(228.5, 77.2%, 51.5%)" stroke-width="1.5"></path><path d="M1011.55 509.51L1011.55 509.51" stroke="hsl(228.5, 77.2%, 51.5%)" stroke-width="1.5"></path><path d="M1011.55 509.51L1091.89 527.27" stroke="hsl(228.5, 77.2%, 51.5%)" stroke-width="1.5"></path><path d="M939.87 681.68L939.87 681.68" stroke="hsl(228.5, 77.2%, 51.5%)" stroke-width="1.5"></path><path d="M939.87 681.68L1099.58 640.45" stroke="hsl(228.5, 77.2%, 51.5%)" stroke-width="1.5"></path><path d="M939.87 681.68L1011.55 509.51" stroke="hsl(228.5, 77.2%, 51.5%)" stroke-width="1.5"></path><path d="M939.87 681.68L822.72 501.63" stroke="hsl(228.5, 77.2%, 51.5%)" stroke-width="1.5"></path><path d="M939.87 681.68L1091.89 527.27" stroke="hsl(228.5, 77.2%, 51.5%)" stroke-width="1.5"></path><path d="M1125.67 214.3L1125.67 214.3" stroke="hsl(228.5, 77.2%, 51.5%)" stroke-width="1.5"></path><path d="M1125.67 214.3L1116.58 357.97" stroke="hsl(228.5, 77.2%, 51.5%)" stroke-width="1.5"></path><path d="M1125.67 214.3L963.95 247.76" stroke="hsl(228.5, 77.2%, 51.5%)" stroke-width="1.5"></path><path d="M1116.58 357.97L1116.58 357.97" stroke="hsl(228.5, 77.2%, 51.5%)" stroke-width="1.5"></path><path d="M1091.89 527.27L1091.89 527.27" stroke="hsl(228.5, 77.2%, 51.5%)" stroke-width="1.5"></path><path d="M1091.89 527.27L1099.58 640.45" stroke="hsl(228.5, 77.2%, 51.5%)" stroke-width="1.5"></path><path d="M1091.89 527.27L1242.85 549.08" stroke="hsl(228.5, 77.2%, 51.5%)" stroke-width="1.5"></path><path d="M1091.89 527.27L1116.58 357.97" stroke="hsl(228.5, 77.2%, 51.5%)" stroke-width="1.5"></path><path d="M1099.58 640.45L1099.58 640.45" stroke="hsl(228.5, 77.2%, 51.5%)" stroke-width="1.5"></path><path d="M1309.24 -54.22L1309.24 -54.22" stroke="hsl(228.5, 77.2%, 51.5%)" stroke-width="1.5"></path><path d="M1309.24 -54.22L1430.69 -110.29" stroke="hsl(228.5, 77.2%, 51.5%)" stroke-width="1.5"></path><path d="M1309.24 -54.22L1278.2 95.07" stroke="hsl(228.5, 77.2%, 51.5%)" stroke-width="1.5"></path><path d="M1278.2 95.07L1278.2 95.07" stroke="hsl(228.5, 77.2%, 51.5%)" stroke-width="1.5"></path><path d="M1278.2 95.07L1308.89 236.9" stroke="hsl(228.5, 77.2%, 51.5%)" stroke-width="1.5"></path><path d="M1278.2 95.07L1458.28 62.72" stroke="hsl(228.5, 77.2%, 51.5%)" stroke-width="1.5"></path><path d="M1278.2 95.07L1125.67 214.3" stroke="hsl(228.5, 77.2%, 51.5%)" stroke-width="1.5"></path><path d="M1308.89 236.9L1308.89 236.9" stroke="hsl(228.5, 77.2%, 51.5%)" stroke-width="1.5"></path><path d="M1308.89 236.9L1125.67 214.3" stroke="hsl(228.5, 77.2%, 51.5%)" stroke-width="1.5"></path><path d="M1308.89 236.9L1424.33 394.16" stroke="hsl(228.5, 77.2%, 51.5%)" stroke-width="1.5"></path><path d="M1242.85 549.08L1242.85 549.08" stroke="hsl(228.5, 77.2%, 51.5%)" stroke-width="1.5"></path><path d="M1242.85 549.08L1281.29 648.87" stroke="hsl(228.5, 77.2%, 51.5%)" stroke-width="1.5"></path><path d="M1242.85 549.08L1099.58 640.45" stroke="hsl(228.5, 77.2%, 51.5%)" stroke-width="1.5"></path><path d="M1281.29 648.87L1281.29 648.87" stroke="hsl(228.5, 77.2%, 51.5%)" stroke-width="1.5"></path><path d="M1281.29 648.87L1389.45 679.38" stroke="hsl(228.5, 77.2%, 51.5%)" stroke-width="1.5"></path><path d="M1281.29 648.87L1099.58 640.45" stroke="hsl(228.5, 77.2%, 51.5%)" stroke-width="1.5"></path><path d="M1430.69 -110.29L1430.69 -110.29" stroke="hsl(228.5, 77.2%, 51.5%)" stroke-width="1.5"></path><path d="M1430.69 -110.29L1538.77 -57.72" stroke="hsl(228.5, 77.2%, 51.5%)" stroke-width="1.5"></path><path d="M1430.69 -110.29L1458.28 62.72" stroke="hsl(228.5, 77.2%, 51.5%)" stroke-width="1.5"></path><path d="M1430.69 -110.29L1584.97 62.23" stroke="hsl(228.5, 77.2%, 51.5%)" stroke-width="1.5"></path><path d="M1424.33 394.16L1424.33 394.16" stroke="hsl(228.5, 77.2%, 51.5%)" stroke-width="1.5"></path><path d="M1424.33 394.16L1451.86 497.49" stroke="hsl(228.5, 77.2%, 51.5%)" stroke-width="1.5"></path><path d="M1451.86 497.49L1451.86 497.49" stroke="hsl(228.5, 77.2%, 51.5%)" stroke-width="1.5"></path><path d="M1451.86 497.49L1556.7 530.58" stroke="hsl(228.5, 77.2%, 51.5%)" stroke-width="1.5"></path><path d="M1451.86 497.49L1389.45 679.38" stroke="hsl(228.5, 77.2%, 51.5%)" stroke-width="1.5"></path><path d="M1389.45 679.38L1389.45 679.38" stroke="hsl(228.5, 77.2%, 51.5%)" stroke-width="1.5"></path><path d="M1389.45 679.38L1242.85 549.08" stroke="hsl(228.5, 77.2%, 51.5%)" stroke-width="1.5"></path><path d="M1389.45 679.38L1556.7 530.58" stroke="hsl(228.5, 77.2%, 51.5%)" stroke-width="1.5"></path><path d="M1389.45 679.38L1424.33 394.16" stroke="hsl(228.5, 77.2%, 51.5%)" stroke-width="1.5"></path><path d="M1389.45 679.38L1099.58 640.45" stroke="hsl(228.5, 77.2%, 51.5%)" stroke-width="1.5"></path><path d="M1538.77 -57.72L1538.77 -57.72" stroke="hsl(228.5, 77.2%, 51.5%)" stroke-width="1.5"></path><path d="M1538.77 -57.72L1584.97 62.23" stroke="hsl(228.5, 77.2%, 51.5%)" stroke-width="1.5"></path><path d="M1584.97 62.23L1584.97 62.23" stroke="hsl(228.5, 77.2%, 51.5%)" stroke-width="1.5"></path><path d="M1556.7 530.58L1556.7 530.58" stroke="hsl(228.5, 77.2%, 51.5%)" stroke-width="1.5"></path><path d="M1556.7 530.58L1424.33 394.16" stroke="hsl(228.5, 77.2%, 51.5%)" stroke-width="1.5"></path><path d="M1556.7 530.58L1609.17 241.7" stroke="hsl(228.5, 77.2%, 51.5%)" stroke-width="1.5"></path><circle r="25" cx="231.43" cy="549.7" fill="url(#SvgjsRadialGradient1001)"></circle><circle r="25" cx="494.44" cy="528.35" fill="url(#SvgjsRadialGradient1001)"></circle><circle r="25" cx="1279.37" cy="369.53" fill="url(#SvgjsRadialGradient1001)"></circle><circle r="25" cx="1458.28" cy="62.72" fill="url(#SvgjsRadialGradient1001)"></circle><circle r="25" cx="1433.38" cy="259.83" fill="url(#SvgjsRadialGradient1001)"></circle><circle r="25" cx="1609.17" cy="241.7" fill="url(#SvgjsRadialGradient1001)"></circle><circle r="5" cx="-91.78" cy="510.77" fill="#8b9ad9"></circle><circle r="5" cx="-89.37" cy="679.13" fill="#8b9ad9"></circle><circle r="5" cx="70.87" cy="539.19" fill="#8b9ad9"></circle><circle r="5" cx="90.79" cy="710.34" fill="#8b9ad9"></circle><circle r="5" cx="233.95" cy="649.63" fill="#8b9ad9"></circle><circle r="5" cx="408.65" cy="499.08" fill="#8b9ad9"></circle><circle r="5" cx="364.33" cy="692.97" fill="#8b9ad9"></circle><circle r="5" cx="517.26" cy="405.4" fill="#8b9ad9"></circle><circle r="5" cx="543.32" cy="709.05" fill="#8b9ad9"></circle><circle r="5" cx="691.09" cy="368.22" fill="#8b9ad9"></circle><circle r="5" cx="643.57" cy="495.39" fill="#8b9ad9"></circle><circle r="5" cx="652.32" cy="678.38" fill="#8b9ad9"></circle><circle r="5" cx="851.4" cy="367.32" fill="#8b9ad9"></circle><circle r="5" cx="822.72" cy="501.63" fill="#8b9ad9"></circle><circle r="5" cx="963.95" cy="247.76" fill="#8b9ad9"></circle><circle r="5" cx="985.72" cy="343.54" fill="#8b9ad9"></circle><circle r="5" cx="1011.55" cy="509.51" fill="#8b9ad9"></circle><circle r="5" cx="939.87" cy="681.68" fill="#8b9ad9"></circle><circle r="5" cx="1125.67" cy="214.3" fill="#8b9ad9"></circle><circle r="5" cx="1116.58" cy="357.97" fill="#8b9ad9"></circle><circle r="5" cx="1091.89" cy="527.27" fill="#8b9ad9"></circle><circle r="5" cx="1099.58" cy="640.45" fill="#8b9ad9"></circle><circle r="5" cx="1309.24" cy="-54.22" fill="#8b9ad9"></circle><circle r="5" cx="1278.2" cy="95.07" fill="#8b9ad9"></circle><circle r="5" cx="1308.89" cy="236.9" fill="#8b9ad9"></circle><circle r="5" cx="1242.85" cy="549.08" fill="#8b9ad9"></circle><circle r="5" cx="1281.29" cy="648.87" fill="#8b9ad9"></circle><circle r="5" cx="1430.69" cy="-110.29" fill="#8b9ad9"></circle><circle r="5" cx="1424.33" cy="394.16" fill="#8b9ad9"></circle><circle r="5" cx="1451.86" cy="497.49" fill="#8b9ad9"></circle><circle r="5" cx="1389.45" cy="679.38" fill="#8b9ad9"></circle><circle r="5" cx="1538.77" cy="-57.72" fill="#8b9ad9"></circle><circle r="5" cx="1584.97" cy="62.23" fill="#8b9ad9"></circle><circle r="5" cx="1556.7" cy="530.58" fill="#8b9ad9"></circle></g><defs><mask id="SvgjsMask1000"><rect width="1440" height="560" fill="#ffffff"></rect></mask><radialGradient id="SvgjsRadialGradient1001"><stop stop-color="#ffffff" offset="0.1"></stop><stop stop-color="#1735b3" offset="0.2"></stop><stop stop-color="rgba(23, 53, 179, 0)" offset="1"></stop></radialGradient></defs></svg>