<svg xmlns="http://www.w3.org/2000/svg" version="1.1" xmlns:xlink="http://www.w3.org/1999/xlink" xmlns:svgjs="http://svgjs.com/svgjs" width="1440" height="250" preserveAspectRatio="none" viewBox="0 0 1440 250"><g mask="url(&quot;#SvgjsMask1000&quot;)" fill="none"><rect width="1440" height="250" x="0" y="0" fill="#0e2a47"></rect><path d="M31 250L281 0L450.5 0L200.5 250z" fill="url(#SvgjsLinearGradient1001)"></path><path d="M272.6 250L522.6 0L800.1 0L550.1 250z" fill="url(#SvgjsLinearGradient1001)"></path><path d="M508.20000000000005 250L758.2 0L1100.2 0L850.2 250z" fill="url(#SvgjsLinearGradient1001)"></path><path d="M714.8000000000001 250L964.8000000000001 0L1107.3000000000002 0L857.3000000000001 250z" fill="url(#SvgjsLinearGradient1001)"></path><path d="M1416 250L1166 0L1005.5 0L1255.5 250z" fill="url(#SvgjsLinearGradient1002)"></path><path d="M1162.4 250L912.4000000000001 0L721.9000000000001 0L971.9000000000001 250z" fill="url(#SvgjsLinearGradient1002)"></path><path d="M926.8 250L676.8 0L481.79999999999995 0L731.8 250z" fill="url(#SvgjsLinearGradient1002)"></path><path d="M707.1999999999999 250L457.19999999999993 0L125.69999999999993 0L375.69999999999993 250z" fill="url(#SvgjsLinearGradient1002)"></path><path d="M1247.546316996208 250L1440 57.54631699620782L1440 250z" fill="url(#SvgjsLinearGradient1001)"></path><path d="M0 250L192.45368300379218 250L 0 57.54631699620782z" fill="url(#SvgjsLinearGradient1002)"></path></g><defs><mask id="SvgjsMask1000"><rect width="1440" height="250" fill="#ffffff"></rect></mask><linearGradient x1="0%" y1="100%" x2="100%" y2="0%" id="SvgjsLinearGradient1001"><stop stop-color="rgba(15, 70, 185, 0.2)" offset="0"></stop><stop stop-opacity="0" stop-color="rgba(15, 70, 185, 0.2)" offset="0.66"></stop></linearGradient><linearGradient x1="100%" y1="100%" x2="0%" y2="0%" id="SvgjsLinearGradient1002"><stop stop-color="rgba(15, 70, 185, 0.2)" offset="0"></stop><stop stop-opacity="0" stop-color="rgba(15, 70, 185, 0.2)" offset="0.66"></stop></linearGradient></defs></svg>