<svg xmlns="http://www.w3.org/2000/svg" version="1.1" xmlns:xlink="http://www.w3.org/1999/xlink" xmlns:svgjs="http://svgjs.com/svgjs" width="1440" height="560" preserveAspectRatio="none" viewBox="0 0 1440 560"><g mask="url(&quot;#SvgjsMask1000&quot;)" fill="none"><rect width="1440" height="560" x="0" y="0" fill="#0e2a47"></rect><path d="M0 396.97L10 394.64L20 414.63L30 369.78L40 320.18L50 293.88L60 323.46L70 342.42L80 273.72L90 209.91L100 164.68L110 176.08L120 184.94L130 233.24L140 167.17L150 172.97L160 120.03L170 106.93L180 154.41L190 208.34L200 249.23L210 309.66L220 303.25L230 291.85L240 259.63L250 294.02L260 229.72L270 265.83L280 227.32L290 212.96L300 229.16L310 299.09L320 301.8L330 306.36L340 250.7L350 242.09L360 239.88L370 255.31L380 216.64L390 229.09L400 168.28L410 138.34L420 182.93L430 246.04L440 228.35L450 272.33L460 221.96L470 243.19L480 253.9L490 258.51L500 212.92L510 199.45L520 220.7L530 199.64L540 141.58L550 170.71L560 152.7L570 215.25L580 191.95L590 201.62L600 238.2L610 253.3L620 288.17L630 288.6L640 255.39L650 210.32L660 261.48L670 206.19L680 248.91L690 291.58L700 311.88L710 261.19L720 226.23L730 250.98L740 249.67L750 205.39L760 215.01L770 249.97L780 299.16L790 310.44L800 377.55L810 445.43L820 428.2L830 383.16L840 390.84L850 349.74L860 377.36L870 399.68L880 464.7L890 477.71L900 455.65L910 441.49L920 392.13L930 379.12L940 410.65L950 406.66L960 396.55L970 387.66L980 337.6L990 370.77L1000 335.3L1010 311.97L1020 251.02L1030 257.87L1040 306.79L1050 256.29L1060 255.21L1070 218.55L1080 262.66L1090 247.96L1100 282.87L1110 299.85L1120 273.02L1130 339.01L1140 299.68L1150 348.75L1160 378.16L1170 412.85L1180 343.72L1190 337.19L1200 343.82L1210 402.31L1220 385.43L1230 380.52L1240 448.02L1250 491.29L1260 519.81L1270 453.25L1280 445.39L1290 404.1L1300 445.44L1310 403.05L1320 389.84L1330 354.54L1340 331.22L1350 273.71L1360 278.47L1370 254.94L1380 204.49L1390 219.27L1400 164.2L1410 168.26L1420 218.53L1430 162.45L1440 205.65" stroke="#224b75" stroke-width="2"></path><path d="M0 396.97L10 394.64L20 414.63L30 369.78L40 320.18L50 293.88L60 323.46L70 342.42L80 273.72L90 209.91L100 164.68L110 176.08L120 184.94L130 233.24L140 167.17L150 172.97L160 120.03L170 106.93L180 154.41L190 208.34L200 249.23L210 309.66L220 303.25L230 291.85L240 259.63L250 294.02L260 229.72L270 265.83L280 227.32L290 212.96L300 229.16L310 299.09L320 301.8L330 306.36L340 250.7L350 242.09L360 239.88L370 255.31L380 216.64L390 229.09L400 168.28L410 138.34L420 182.93L430 246.04L440 228.35L450 272.33L460 221.96L470 243.19L480 253.9L490 258.51L500 212.92L510 199.45L520 220.7L530 199.64L540 141.58L550 170.71L560 152.7L570 215.25L580 191.95L590 201.62L600 238.2L610 253.3L620 288.17L630 288.6L640 255.39L650 210.32L660 261.48L670 206.19L680 248.91L690 291.58L700 311.88L710 261.19L720 226.23L730 250.98L740 249.67L750 205.39L760 215.01L770 249.97L780 299.16L790 310.44L800 377.55L810 445.43L820 428.2L830 383.16L840 390.84L850 349.74L860 377.36L870 399.68L880 464.7L890 477.71L900 455.65L910 441.49L920 392.13L930 379.12L940 410.65L950 406.66L960 396.55L970 387.66L980 337.6L990 370.77L1000 335.3L1010 311.97L1020 251.02L1030 257.87L1040 306.79L1050 256.29L1060 255.21L1070 218.55L1080 262.66L1090 247.96L1100 282.87L1110 299.85L1120 273.02L1130 339.01L1140 299.68L1150 348.75L1160 378.16L1170 412.85L1180 343.72L1190 337.19L1200 343.82L1210 402.31L1220 385.43L1230 380.52L1240 448.02L1250 491.29L1260 519.81L1270 453.25L1280 445.39L1290 404.1L1300 445.44L1310 403.05L1320 389.84L1330 354.54L1340 331.22L1350 273.71L1360 278.47L1370 254.94L1380 204.49L1390 219.27L1400 164.2L1410 168.26L1420 218.53L1430 162.45L1440 205.65L1440 560L0 560z" fill="url(#SvgjsLinearGradient1001)"></path></g><defs><mask id="SvgjsMask1000"><rect width="1440" height="560" fill="#ffffff"></rect></mask><linearGradient x1="50%" y1="0%" x2="50%" y2="100%" id="SvgjsLinearGradient1001"><stop stop-opacity="0.65" stop-color="#224b75" offset="0"></stop><stop stop-opacity="0" stop-color="#508dcc" offset="0.8"></stop></linearGradient></defs></svg>