<svg xmlns="http://www.w3.org/2000/svg" version="1.1" xmlns:xlink="http://www.w3.org/1999/xlink" xmlns:svgjs="http://svgjs.com/svgjs" width="1440" height="560" preserveAspectRatio="none" viewBox="0 0 1440 560"><g mask="url(&quot;#SvgjsMask1000&quot;)" fill="none"><rect width="1440" height="560" x="0" y="0" fill="#0e2a47"></rect><path d="M -16.63569956381093,464 C 79.36,400.6 271.36,155.4 463.36430043618907,147 C 655.36,138.6 751.36,433.6 943.3643004361891,422 C 1135.36,410.4 1231.36,87 1423.364300436189,89 C 1615.36,91 1900.04,433 1903.364300436189,432 C 1906.69,431 1532.67,153.6 1440,84" stroke="rgba(51, 121, 194, 0.58)" stroke-width="2"></path><path d="M -561.3216788853855,464 C -465.32,414 -273.32,244.8 -81.32167888538554,214 C 110.68,183.2 206.68,332.6 398.67832111461445,310 C 590.68,287.4 686.68,102.4 878.6783211146145,101 C 1070.68,99.6 1246.41,287.8 1358.6783211146144,303 C 1470.94,318.2 1423.74,202.2 1440,177" stroke="rgba(51, 121, 194, 0.58)" stroke-width="2"></path><path d="M -511.83325725447287,316 C -415.83,297.4 -223.83,228.4 -31.833257254472862,223 C 160.17,217.6 256.17,313 448.16674274552713,289 C 640.17,265 736.17,88.8 928.1667427455271,103 C 1120.17,117.2 1305.8,328.2 1408.1667427455272,360 C 1510.53,391.8 1433.63,281.6 1440,262" stroke="rgba(51, 121, 194, 0.58)" stroke-width="2"></path><path d="M -247.29925454397303,442 C -151.3,404 40.7,257.4 232.70074545602697,252 C 424.7,246.6 520.7,414.2 712.700745456027,415 C 904.7,415.8 1000.7,241.8 1192.7007454560269,256 C 1384.7,270.2 1623.24,496.4 1672.7007454560269,486 C 1722.16,475.6 1486.54,260.4 1440,204" stroke="rgba(51, 121, 194, 0.58)" stroke-width="2"></path></g><defs><mask id="SvgjsMask1000"><rect width="1440" height="560" fill="#ffffff"></rect></mask></defs></svg>